<svg viewBox="0 0 200 200" xmlns="http://www.w3.org/2000/svg">
  <path fill="#FF0000" d="M26.2,-43.8C35.5,-39.9,45.6,-36.1,51.4,-28.8C57.2,-21.5,58.7,-10.7,58.4,-0.1C58.2,10.5,56.3,20.9,52.1,31.1C48,41.4,41.7,51.4,32.7,57C23.6,62.6,11.8,63.8,-2.2,67.5C-16.2,71.3,-32.4,77.7,-40.2,71.4C-48,65,-47.4,46,-51.7,32C-56,18,-65.2,9,-68.1,-1.7C-71,-12.4,-67.6,-24.7,-60.9,-34.6C-54.2,-44.5,-44.2,-51.9,-33.5,-54.9C-22.8,-57.8,-11.4,-56.4,-1.5,-53.9C8.4,-51.3,16.9,-47.6,26.2,-43.8Z" transform="translate(100 100)" />
</svg>